<svg width="23" height="24" viewBox="0 0 23 24" fill="none" xmlns="http://www.w3.org/2000/svg">
<path d="M19.8645 0C21.2705 0 22.4045 1.137 22.4715 2.475V24L19.7945 21.727L18.3245 20.389L16.7205 18.991L17.3905 21.196H3.3525C1.9505 21.196 0.8125 20.131 0.8125 18.72V2.48C0.8125 1.142 1.9525 0.003 3.3575 0.003H19.8575L19.8645 0ZM13.7465 5.683H13.7165L13.5145 5.883C15.5875 6.483 16.5905 7.42 16.5905 7.42C15.2545 6.752 14.0505 6.418 12.8465 6.283C11.9765 6.148 11.1065 6.219 10.3715 6.283H10.1715C9.7015 6.283 8.7015 6.483 7.3615 7.018C6.8945 7.221 6.6265 7.354 6.6265 7.354C6.6265 7.354 7.6285 6.352 9.8365 5.817L9.7015 5.682C9.7015 5.682 8.0295 5.618 6.2245 6.952C6.2245 6.952 4.4195 10.096 4.4195 13.972C4.4195 13.972 5.4195 15.712 8.1625 15.778C8.1625 15.778 8.5625 15.245 8.9675 14.776C7.4275 14.308 6.8275 13.372 6.8275 13.372C6.8275 13.372 6.9615 13.438 7.1625 13.572H7.2225C7.2525 13.572 7.2665 13.587 7.2825 13.602V13.608C7.2985 13.624 7.3125 13.638 7.3425 13.638C7.6725 13.774 8.0025 13.908 8.2725 14.038C8.7385 14.24 9.3375 14.441 10.0725 14.574C11.0025 14.709 12.0685 14.774 13.2825 14.574C13.8825 14.439 14.4825 14.307 15.0825 14.039C15.4725 13.839 15.9525 13.639 16.4795 13.302C16.4795 13.302 15.8795 14.238 14.2745 14.706C14.6045 15.172 15.0695 15.706 15.0695 15.706C17.8135 15.646 18.8795 13.906 18.9395 13.98C18.9395 10.11 17.1245 6.96 17.1245 6.96C15.4895 5.746 13.9595 5.7 13.6895 5.7L13.7455 5.68L13.7465 5.683ZM13.9145 10.096C14.6175 10.096 15.1845 10.696 15.1845 11.431C15.1845 12.171 14.6145 12.771 13.9145 12.771C13.2145 12.771 12.6445 12.171 12.6445 11.437C12.6465 10.697 13.2175 10.099 13.9145 10.099V10.096ZM9.3715 10.096C10.0715 10.096 10.6375 10.696 10.6375 11.431C10.6375 12.171 10.0675 12.771 9.3675 12.771C8.6675 12.771 8.0975 12.171 8.0975 11.437C8.0975 10.697 8.6675 10.099 9.3675 10.099L9.3715 10.096Z" fill="white"/>
</svg>
