<svg width="25" height="24" viewBox="0 0 25 24" fill="none" xmlns="http://www.w3.org/2000/svg">
<path d="M12.666 0C9.40602 0 8.99902 0.015 7.71902 0.072C6.44102 0.132 5.57102 0.333 4.80602 0.63C4.01702 0.936 3.34702 1.347 2.68002 2.014C2.01302 2.681 1.60102 3.35 1.29602 4.14C0.999016 4.905 0.797016 5.775 0.738016 7.053C0.678016 8.333 0.666016 8.74 0.666016 12C0.666016 15.26 0.681016 15.667 0.738016 16.947C0.798016 18.224 0.999016 19.095 1.29602 19.86C1.60202 20.648 2.01302 21.319 2.68002 21.986C3.34702 22.652 4.01602 23.065 4.80602 23.37C5.57202 23.666 6.44202 23.869 7.71902 23.928C8.99902 23.988 9.40602 24 12.666 24C15.926 24 16.333 23.985 17.613 23.928C18.89 23.868 19.761 23.666 20.526 23.37C21.314 23.064 21.985 22.652 22.652 21.986C23.318 21.319 23.731 20.651 24.036 19.86C24.332 19.095 24.535 18.224 24.594 16.947C24.654 15.667 24.666 15.26 24.666 12C24.666 8.74 24.651 8.333 24.594 7.053C24.534 5.776 24.332 4.904 24.036 4.14C23.73 3.351 23.318 2.681 22.652 2.014C21.985 1.347 21.317 0.935 20.526 0.63C19.761 0.333 18.89 0.131 17.613 0.072C16.333 0.012 15.926 0 12.666 0ZM12.666 2.16C15.869 2.16 16.251 2.176 17.516 2.231C18.686 2.286 19.321 2.48 19.743 2.646C20.305 2.863 20.703 3.123 21.125 3.542C21.544 3.962 21.804 4.361 22.021 4.923C22.185 5.345 22.381 5.98 22.434 7.15C22.491 8.416 22.504 8.796 22.504 12C22.504 15.204 22.489 15.585 22.43 16.85C22.369 18.02 22.174 18.655 22.009 19.077C21.785 19.639 21.53 20.037 21.11 20.459C20.691 20.878 20.286 21.138 19.73 21.355C19.31 21.519 18.665 21.715 17.495 21.768C16.221 21.825 15.846 21.838 12.636 21.838C9.42502 21.838 9.05002 21.823 7.77702 21.764C6.60602 21.703 5.96102 21.508 5.54102 21.343C4.97202 21.119 4.58102 20.864 4.16202 20.444C3.74102 20.025 3.47202 19.62 3.26202 19.064C3.09702 18.644 2.90302 17.999 2.84202 16.829C2.79702 15.569 2.78102 15.18 2.78102 11.985C2.78102 8.789 2.79702 8.399 2.84202 7.124C2.90302 5.954 3.09702 5.31 3.26202 4.89C3.47202 4.32 3.74102 3.93 4.16202 3.509C4.58102 3.09 4.97202 2.82 5.54102 2.611C5.96102 2.445 6.59202 2.25 7.76202 2.19C9.03702 2.145 9.41202 2.13 12.621 2.13L12.666 2.16ZM12.666 5.838C9.26102 5.838 6.50402 8.598 6.50402 12C6.50402 15.405 9.26402 18.162 12.666 18.162C16.071 18.162 18.828 15.402 18.828 12C18.828 8.595 16.068 5.838 12.666 5.838ZM12.666 16C10.456 16 8.66602 14.21 8.66602 12C8.66602 9.79 10.456 8 12.666 8C14.876 8 16.666 9.79 16.666 12C16.666 14.21 14.876 16 12.666 16ZM20.512 5.595C20.512 6.39 19.866 7.035 19.072 7.035C18.277 7.035 17.632 6.389 17.632 5.595C17.632 4.801 18.278 4.156 19.072 4.156C19.865 4.155 20.512 4.801 20.512 5.595Z" fill="white"/>
</svg>
