<svg width="30" height="24" viewBox="0 0 30 24" fill="none" xmlns="http://www.w3.org/2000/svg">
<path d="M29.942 2.85805C28.8531 3.33665 27.6905 3.66269 26.4663 3.81155C27.7138 3.05982 28.6735 1.87502 29.1275 0.461373C27.9575 1.1442 26.6607 1.64126 25.2803 1.91808C24.1779 0.738197 22.6068 0 20.8622 0C17.5194 0 14.8089 2.71041 14.8089 6.04952C14.8089 6.52935 14.8643 6.99072 14.9652 7.43241C9.93315 7.19496 5.47322 4.77859 2.48844 1.12575C1.96309 2.01405 1.66904 3.04629 1.66904 4.17081C1.66904 6.27467 2.73943 8.12385 4.361 9.21023C3.36812 9.17824 2.43431 8.90511 1.61983 8.45235V8.5274C1.61983 11.4617 3.70277 13.9089 6.4747 14.4662C5.96658 14.6028 5.43015 14.6766 4.8802 14.6766C4.49387 14.6766 4.12355 14.6397 3.75322 14.5708C4.52955 16.9736 6.76137 18.7256 9.41765 18.7748C7.35069 20.3976 4.73133 21.3646 1.91019 21.3646C1.43036 21.3646 0.951761 21.3363 0.470703 21.2822C3.16389 22.9973 6.33691 24 9.76829 24C20.9077 24 26.9916 14.7775 26.9916 6.79264C26.9916 6.5355 26.9916 6.2759 26.9732 6.01753C28.1555 5.16984 29.1878 4.09822 29.9998 2.88266L29.942 2.85805Z" fill="white"/>
</svg>
