<svg width="23" height="24" viewBox="0 0 23 24" fill="none" xmlns="http://www.w3.org/2000/svg">
<path d="M19.718 0C21.124 0 22.258 1.137 22.325 2.475V24L19.648 21.727L18.178 20.389L16.574 18.991L17.244 21.196H3.20602C1.80402 21.196 0.666016 20.131 0.666016 18.72V2.48C0.666016 1.142 1.80602 0.003 3.21102 0.003H19.711L19.718 0ZM13.6 5.683H13.57L13.368 5.883C15.441 6.483 16.444 7.42 16.444 7.42C15.108 6.752 13.904 6.418 12.7 6.283C11.83 6.148 10.96 6.219 10.225 6.283H10.025C9.55502 6.283 8.55502 6.483 7.21502 7.018C6.74802 7.221 6.48002 7.354 6.48002 7.354C6.48002 7.354 7.48202 6.352 9.69002 5.817L9.55502 5.682C9.55502 5.682 7.88302 5.618 6.07802 6.952C6.07802 6.952 4.27302 10.096 4.27302 13.972C4.27302 13.972 5.27302 15.712 8.01602 15.778C8.01602 15.778 8.41602 15.245 8.82102 14.776C7.28102 14.308 6.68102 13.372 6.68102 13.372C6.68102 13.372 6.81502 13.438 7.01602 13.572H7.07602C7.10602 13.572 7.12002 13.587 7.13602 13.602V13.608C7.15202 13.624 7.16602 13.638 7.19602 13.638C7.52602 13.774 7.85602 13.908 8.12602 14.038C8.59202 14.24 9.19102 14.441 9.92602 14.574C10.856 14.709 11.922 14.774 13.136 14.574C13.736 14.439 14.336 14.307 14.936 14.039C15.326 13.839 15.806 13.639 16.333 13.302C16.333 13.302 15.733 14.238 14.128 14.706C14.458 15.172 14.923 15.706 14.923 15.706C17.667 15.646 18.733 13.906 18.793 13.98C18.793 10.11 16.978 6.96 16.978 6.96C15.343 5.746 13.813 5.7 13.543 5.7L13.599 5.68L13.6 5.683ZM13.768 10.096C14.471 10.096 15.038 10.696 15.038 11.431C15.038 12.171 14.468 12.771 13.768 12.771C13.068 12.771 12.498 12.171 12.498 11.437C12.5 10.697 13.071 10.099 13.768 10.099V10.096ZM9.22502 10.096C9.92502 10.096 10.491 10.696 10.491 11.431C10.491 12.171 9.92102 12.771 9.22102 12.771C8.52102 12.771 7.95102 12.171 7.95102 11.437C7.95102 10.697 8.52102 10.099 9.22102 10.099L9.22502 10.096Z" fill="white"/>
</svg>
