<svg width="25" height="24" viewBox="0 0 25 24" fill="none" xmlns="http://www.w3.org/2000/svg">
<path d="M12.3242 0C9.06422 0 8.65722 0.015 7.37722 0.072C6.09922 0.132 5.22922 0.333 4.46422 0.63C3.67522 0.936 3.00522 1.347 2.33822 2.014C1.67122 2.681 1.25922 3.35 0.954219 4.14C0.657219 4.905 0.455219 5.775 0.396219 7.053C0.336219 8.333 0.324219 8.74 0.324219 12C0.324219 15.26 0.339219 15.667 0.396219 16.947C0.456219 18.224 0.657219 19.095 0.954219 19.86C1.26022 20.648 1.67122 21.319 2.33822 21.986C3.00522 22.652 3.67422 23.065 4.46422 23.37C5.23022 23.666 6.10022 23.869 7.37722 23.928C8.65722 23.988 9.06422 24 12.3242 24C15.5842 24 15.9912 23.985 17.2712 23.928C18.5482 23.868 19.4192 23.666 20.1842 23.37C20.9722 23.064 21.6432 22.652 22.3102 21.986C22.9762 21.319 23.3892 20.651 23.6942 19.86C23.9902 19.095 24.1932 18.224 24.2522 16.947C24.3122 15.667 24.3242 15.26 24.3242 12C24.3242 8.74 24.3092 8.333 24.2522 7.053C24.1922 5.776 23.9902 4.904 23.6942 4.14C23.3882 3.351 22.9762 2.681 22.3102 2.014C21.6432 1.347 20.9752 0.935 20.1842 0.63C19.4192 0.333 18.5482 0.131 17.2712 0.072C15.9912 0.012 15.5842 0 12.3242 0ZM12.3242 2.16C15.5272 2.16 15.9092 2.176 17.1742 2.231C18.3442 2.286 18.9792 2.48 19.4012 2.646C19.9632 2.863 20.3612 3.123 20.7832 3.542C21.2022 3.962 21.4622 4.361 21.6792 4.923C21.8432 5.345 22.0392 5.98 22.0922 7.15C22.1492 8.416 22.1622 8.796 22.1622 12C22.1622 15.204 22.1472 15.585 22.0882 16.85C22.0272 18.02 21.8322 18.655 21.6672 19.077C21.4432 19.639 21.1882 20.037 20.7682 20.459C20.3492 20.878 19.9442 21.138 19.3882 21.355C18.9682 21.519 18.3232 21.715 17.1532 21.768C15.8792 21.825 15.5042 21.838 12.2942 21.838C9.08322 21.838 8.70822 21.823 7.43522 21.764C6.26422 21.703 5.61922 21.508 5.19922 21.343C4.63022 21.119 4.23922 20.864 3.82022 20.444C3.39922 20.025 3.13022 19.62 2.92022 19.064C2.75522 18.644 2.56122 17.999 2.50022 16.829C2.45522 15.569 2.43922 15.18 2.43922 11.985C2.43922 8.789 2.45522 8.399 2.50022 7.124C2.56122 5.954 2.75522 5.31 2.92022 4.89C3.13022 4.32 3.39922 3.93 3.82022 3.509C4.23922 3.09 4.63022 2.82 5.19922 2.611C5.61922 2.445 6.25022 2.25 7.42022 2.19C8.69522 2.145 9.07022 2.13 12.2792 2.13L12.3242 2.16ZM12.3242 5.838C8.91922 5.838 6.16222 8.598 6.16222 12C6.16222 15.405 8.92222 18.162 12.3242 18.162C15.7292 18.162 18.4862 15.402 18.4862 12C18.4862 8.595 15.7262 5.838 12.3242 5.838ZM12.3242 16C10.1142 16 8.32422 14.21 8.32422 12C8.32422 9.79 10.1142 8 12.3242 8C14.5342 8 16.3242 9.79 16.3242 12C16.3242 14.21 14.5342 16 12.3242 16ZM20.1702 5.595C20.1702 6.39 19.5242 7.035 18.7302 7.035C17.9352 7.035 17.2902 6.389 17.2902 5.595C17.2902 4.801 17.9362 4.156 18.7302 4.156C19.5232 4.155 20.1702 4.801 20.1702 5.595Z" fill="white"/>
</svg>
