<svg width="25" height="18" viewBox="0 0 25 18" fill="none" xmlns="http://www.w3.org/2000/svg">
<path d="M24.3411 8.45576C23.2566 3.55301 21.6246 0.93623 19.2036 0.221447C18.6948 0.0721754 18.1669 -0.00239905 17.6365 5.88275e-05C16.9356 5.88275e-05 16.3251 0.170829 15.6793 0.351826C14.9012 0.570146 14.0171 0.818122 12.7282 0.818122C11.4392 0.818122 10.5547 0.570658 9.77496 0.352337C9.12869 0.170829 8.51872 5.88275e-05 7.81979 5.88275e-05C7.2714 -0.0018427 6.7254 0.0724943 6.19747 0.220936C3.7893 0.932651 2.15828 3.54841 1.05799 8.45269C-0.125133 13.7302 0.457225 17.0623 2.69105 17.8354C2.99725 17.9433 3.31943 17.999 3.64409 18C5.17438 18 6.40148 16.7254 7.23999 15.6818C8.18741 14.5007 9.2964 13.9015 12.7282 13.9015C15.7933 13.9015 17.0619 14.3172 18.1576 15.6818C18.8463 16.5398 19.4971 17.14 20.1465 17.5179C21.01 18.0199 21.8731 18.1314 22.7111 17.8435C24.0312 17.3931 24.788 16.2023 24.9608 14.3034C25.0922 12.8472 24.8897 10.9345 24.3411 8.45576ZM10.274 8.18069H8.63785V9.81681C8.63785 10.0338 8.55167 10.2419 8.39825 10.3953C8.24483 10.5487 8.03676 10.6349 7.81979 10.6349C7.60283 10.6349 7.39475 10.5487 7.24133 10.3953C7.08792 10.2419 7.00173 10.0338 7.00173 9.81681V8.18069H5.3656C5.14864 8.18069 4.94056 8.0945 4.78715 7.94108C4.63373 7.78767 4.54754 7.57959 4.54754 7.36263C4.54754 7.14566 4.63373 6.93758 4.78715 6.78417C4.94056 6.63075 5.14864 6.54456 5.3656 6.54456H7.00173V4.90844C7.00173 4.69147 7.08792 4.4834 7.24133 4.32998C7.39475 4.17656 7.60283 4.09037 7.81979 4.09037C8.03676 4.09037 8.24483 4.17656 8.39825 4.32998C8.55167 4.4834 8.63785 4.69147 8.63785 4.90844V6.54456H10.274C10.4909 6.54456 10.699 6.63075 10.8524 6.78417C11.0059 6.93758 11.092 7.14566 11.092 7.36263C11.092 7.57959 11.0059 7.78767 10.8524 7.94108C10.699 8.0945 10.4909 8.18069 10.274 8.18069ZM14.5688 8.3852C14.3666 8.3852 14.1689 8.32523 14.0007 8.21287C13.8325 8.10051 13.7015 7.9408 13.6241 7.75395C13.5467 7.5671 13.5264 7.36149 13.5659 7.16313C13.6053 6.96477 13.7027 6.78256 13.8457 6.63955C13.9887 6.49654 14.171 6.39915 14.3693 6.3597C14.5677 6.32024 14.7733 6.34049 14.9601 6.41789C15.147 6.49528 15.3067 6.62635 15.4191 6.79451C15.5314 6.96267 15.5914 7.16038 15.5914 7.36263C15.5914 7.63383 15.4837 7.89393 15.2919 8.0857C15.1001 8.27747 14.84 8.3852 14.5688 8.3852ZM16.8185 10.6349C16.6161 10.6349 16.4183 10.5748 16.2501 10.4624C16.0819 10.3499 15.9508 10.19 15.8735 10.003C15.7962 9.81603 15.7761 9.61029 15.8157 9.41186C15.8554 9.21343 15.9531 9.03123 16.0963 8.88832C16.2396 8.74541 16.422 8.64822 16.6206 8.60906C16.8191 8.56989 17.0248 8.59051 17.2116 8.66829C17.3984 8.74608 17.5579 8.87755 17.67 9.04605C17.782 9.21454 17.8416 9.4125 17.8411 9.61485C17.8404 9.88562 17.7324 10.1451 17.5407 10.3363C17.349 10.5275 17.0892 10.6349 16.8185 10.6349ZM16.8185 6.13553C16.6162 6.13553 16.4185 6.07556 16.2504 5.9632C16.0822 5.85083 15.9511 5.69113 15.8737 5.50428C15.7963 5.31742 15.7761 5.11182 15.8156 4.91346C15.855 4.7151 15.9524 4.53289 16.0954 4.38988C16.2384 4.24687 16.4206 4.14948 16.619 4.11002C16.8174 4.07057 17.023 4.09082 17.2098 4.16821C17.3967 4.24561 17.5564 4.37668 17.6687 4.54484C17.7811 4.713 17.8411 4.91071 17.8411 5.11295C17.8411 5.38416 17.7333 5.64425 17.5416 5.83602C17.3498 6.0278 17.0897 6.13553 16.8185 6.13553ZM19.0682 8.3852C18.8659 8.3852 18.6682 8.32523 18.5 8.21287C18.3319 8.10051 18.2008 7.9408 18.1234 7.75395C18.046 7.5671 18.0258 7.36149 18.0652 7.16313C18.1047 6.96477 18.2021 6.78256 18.3451 6.63955C18.4881 6.49654 18.6703 6.39915 18.8687 6.3597C19.067 6.32024 19.2726 6.34049 19.4595 6.41789C19.6463 6.49528 19.806 6.62635 19.9184 6.79451C20.0308 6.96267 20.0907 7.16038 20.0907 7.36263C20.0907 7.63383 19.983 7.89393 19.7912 8.0857C19.5995 8.27747 19.3394 8.3852 19.0682 8.3852Z" fill="white"/>
</svg>
