<svg width="20" height="20" viewBox="0 0 20 20" fill="none" xmlns="http://www.w3.org/2000/svg">
<path d="M1.11105 18.8879C0.497432 18.2743 0.497432 17.2794 1.11105 16.6658L16.6657 1.11063C17.2793 0.496997 18.2742 0.496997 18.8878 1.11063C19.5014 1.72426 19.5014 2.71916 18.8878 3.33279L3.33314 18.8879C2.71952 19.5016 1.72466 19.5016 1.11105 18.8879Z" fill="black"/>
<path d="M18.8884 18.8884C18.2748 19.5021 17.2799 19.5021 16.6663 18.8884L1.11165 3.33329C0.498039 2.71965 0.498038 1.72476 1.11165 1.11112C1.72527 0.497489 2.72013 0.49749 3.33374 1.11112L18.8884 16.6663C19.502 17.2799 19.502 18.2748 18.8884 18.8884Z" fill="black"/>
</svg>
