<svg width="33" height="24" viewBox="0 0 33 24" fill="none" xmlns="http://www.w3.org/2000/svg">
<path d="M0.599609 2.1C0.599609 0.940202 1.53981 0 2.69961 0H30.2996C31.4594 0 32.3996 0.940202 32.3996 2.1V2.1C32.3996 3.2598 31.4594 4.2 30.2996 4.2H2.69961C1.53981 4.2 0.599609 3.2598 0.599609 2.1V2.1Z" fill="white"/>
<path d="M0.599609 12.0002C0.599609 11.0061 1.4055 10.2002 2.39961 10.2002H30.5996C31.5937 10.2002 32.3996 11.0061 32.3996 12.0002V12.0002C32.3996 12.9943 31.5937 13.8002 30.5996 13.8002H2.39961C1.4055 13.8002 0.599609 12.9943 0.599609 12.0002V12.0002Z" fill="white"/>
<path d="M0.599609 21.8998C0.599609 20.74 1.53981 19.7998 2.69961 19.7998H30.2996C31.4594 19.7998 32.3996 20.74 32.3996 21.8998V21.8998C32.3996 23.0596 31.4594 23.9998 30.2996 23.9998H2.69961C1.53981 23.9998 0.599609 23.0596 0.599609 21.8998V21.8998Z" fill="white"/>
</svg>
