<svg width="25" height="24" viewBox="0 0 25 24" fill="none" xmlns="http://www.w3.org/2000/svg">
<path d="M1.4329 22.6663C0.696546 21.9299 0.696546 20.7361 1.4329 19.9997L20.099 1.3335C20.8354 0.597141 22.0293 0.597139 22.7656 1.3335V1.3335C23.502 2.06986 23.502 3.26374 22.7656 4.0001L4.0995 22.6663C3.36314 23.4027 2.16926 23.4027 1.4329 22.6663V22.6663Z" fill="white"/>
<path d="M22.7649 22.6667C22.0286 23.4031 20.8347 23.4031 20.0983 22.6667L1.43221 4.00049C0.69585 3.26413 0.695849 2.07025 1.43221 1.33389V1.33389C2.16857 0.597531 3.36244 0.59753 4.0988 1.33389L22.7649 20.0001C23.5013 20.7365 23.5013 21.9303 22.7649 22.6667V22.6667Z" fill="white"/>
</svg>
