<svg width="24" height="24" viewBox="0 0 24 24" fill="none" xmlns="http://www.w3.org/2000/svg">
<path d="M1.3333 22.6663C0.596937 21.9299 0.596937 20.7361 1.3333 19.9997L19.9994 1.3335C20.7358 0.597141 21.9297 0.597139 22.666 1.3335V1.3335C23.4024 2.06986 23.4024 3.26374 22.666 4.0001L3.99989 22.6663C3.26353 23.4027 2.06965 23.4027 1.3333 22.6663V22.6663Z" fill="black"/>
<path d="M22.6653 22.6667C21.929 23.4031 20.7351 23.4031 19.9987 22.6667L1.3326 4.00049C0.596241 3.26413 0.59624 2.07025 1.3326 1.33389V1.33389C2.06896 0.597531 3.26283 0.59753 3.99919 1.33389L22.6653 20.0001C23.4017 20.7365 23.4017 21.9303 22.6653 22.6667V22.6667Z" fill="black"/>
</svg>
