<svg width="32" height="24" viewBox="0 0 32 24" fill="none" xmlns="http://www.w3.org/2000/svg">
<path d="M0.199219 21.8998C0.199219 20.74 1.13942 19.7998 2.29922 19.7998H29.8992C31.059 19.7998 31.9992 20.74 31.9992 21.8998V21.8998C31.9992 23.0596 31.059 23.9998 29.8992 23.9998H2.29922C1.13942 23.9998 0.199219 23.0596 0.199219 21.8998V21.8998Z" fill="white"/>
<path d="M0.199219 12.0002C0.199219 11.0061 1.00511 10.2002 1.99922 10.2002H30.1992C31.1933 10.2002 31.9992 11.0061 31.9992 12.0002V12.0002C31.9992 12.9943 31.1933 13.8002 30.1992 13.8002H1.99922C1.00511 13.8002 0.199219 12.9943 0.199219 12.0002V12.0002Z" fill="white"/>
<path d="M0.199219 2.1C0.199219 0.940202 1.13942 0 2.29922 0H29.8992C31.059 0 31.9992 0.940202 31.9992 2.1V2.1C31.9992 3.2598 31.059 4.2 29.8992 4.2H2.29922C1.13942 4.2 0.199219 3.2598 0.199219 2.1V2.1Z" fill="white"/>
</svg>
