<svg width="20" height="16" viewBox="0 0 20 16" fill="none" xmlns="http://www.w3.org/2000/svg">
<path d="M0 1.5C0 0.947715 0.447715 0.5 1 0.5H19C19.5523 0.5 20 0.947715 20 1.5V1.5C20 2.05228 19.5523 2.5 19 2.5H1C0.447716 2.5 0 2.05228 0 1.5V1.5Z" fill="white"/>
<path d="M0 8C0 7.44772 0.447715 7 1 7H19C19.5523 7 20 7.44772 20 8V8C20 8.55228 19.5523 9 19 9H1C0.447716 9 0 8.55228 0 8V8Z" fill="white"/>
<path d="M0 14.5C0 13.9477 0.447715 13.5 1 13.5H19C19.5523 13.5 20 13.9477 20 14.5V14.5C20 15.0523 19.5523 15.5 19 15.5H1C0.447716 15.5 0 15.0523 0 14.5V14.5Z" fill="white"/>
</svg>
